<?xml version="1.0" encoding="utf-8"?>
<!-- Generator: Adobe Illustrator 21.0.0, SVG Export Plug-In . SVG Version: 6.00 Build 0)  -->
<svg version="1.1" id="Layer_1" xmlns="http://www.w3.org/2000/svg" xmlns:xlink="http://www.w3.org/1999/xlink" x="0px" y="0px"
	 viewBox="0 0 118 40" style="enable-background:new 0 0 118 40;" xml:space="preserve">
<g>
	<path d="M12.1,39c-1.7,0-3.3-0.3-4.7-1s-2.6-1.6-3.6-2.8S2,32.6,1.5,30.8s-0.8-3.7-0.8-5.9c0-2,0.3-3.9,0.8-5.6s1.3-3.2,2.3-4.5
		s2.2-2.2,3.6-2.9c1.4-0.7,3-1.1,4.7-1.1c1.8,0,3.4,0.4,4.7,1.2c1.3,0.8,2.3,1.9,3.2,3.3h0.1c-0.1-0.8-0.1-1.8-0.1-2.9
		c0-1.1-0.1-2.2-0.1-3.3V1h7.9v37.2h-7.5v-3.9h-0.1c-0.8,1.6-1.9,2.8-3.3,3.6C15.5,38.6,13.9,39,12.1,39z M14.2,32.7
		c1.9,0,3.4-0.7,4.5-2.2c1.1-1.5,1.6-3.3,1.6-5.7c0-1.2-0.1-2.2-0.4-3.2s-0.6-1.9-1.1-2.6c-0.5-0.7-1.1-1.3-1.9-1.7
		c-0.8-0.4-1.6-0.6-2.6-0.6c-1.9,0-3.3,0.7-4.2,2.2c-0.9,1.5-1.4,3.4-1.4,5.8s0.5,4.3,1.4,5.8C11,32,12.4,32.7,14.2,32.7z"/>
	<path d="M37.9,1h7.9v37.2h-7.9V1z"/>
	<path d="M50,1h8v6.9h-8V1z M50,11.6h7.9v26.6H50V11.6z"/>
	<path d="M69.6,15.6h0.2c0.8-1.6,1.9-2.8,3.3-3.6c1.4-0.8,3-1.2,4.9-1.2c2.9,0,5.2,0.9,6.8,2.7c1.6,1.8,2.4,4.2,2.4,7.2v17.5h-7.8
		v-16c0-1.5-0.4-2.6-1.1-3.5c-0.8-0.9-1.9-1.3-3.3-1.3c-1.5,0-2.8,0.6-3.7,1.6c-0.9,1.1-1.4,2.5-1.4,4.2v15H62V11.6h7.6V15.6z"/>
	<path d="M103.9,39c-2.2,0-4.1-0.4-5.8-1.1c-1.7-0.7-3.2-1.7-4.4-3c-1.2-1.3-2.2-2.8-2.8-4.5c-0.7-1.7-1-3.5-1-5.5s0.3-3.9,1-5.6
		c0.7-1.7,1.6-3.2,2.8-4.5c1.2-1.3,2.6-2.3,4.3-3c1.7-0.7,3.5-1.1,5.5-1.1c1.9,0,3.6,0.3,5.1,0.9c1.5,0.6,2.9,1.4,4,2.5
		c1.5,1.5,2.6,3.3,3.3,5.5c0.7,2.2,1,4.6,1,7.2H97.5c0.3,2,0.9,3.6,2,4.7c1.1,1.1,2.5,1.7,4.5,1.7c1.2,0,2.2-0.2,3-0.7
		c0.8-0.4,1.4-1.1,1.8-1.9h7.6c-0.3,1.2-0.9,2.3-1.6,3.3c-0.7,1-1.6,1.9-2.7,2.6s-2.3,1.3-3.7,1.8C107.1,38.8,105.6,39,103.9,39z
		 M103.5,16.4c-1.8,0-3.2,0.5-4.1,1.6c-0.9,1.1-1.5,2.5-1.8,4.4h11.4c-0.1-1.9-0.7-3.3-1.7-4.4C106.3,16.9,105,16.4,103.5,16.4z"/>
</g>
</svg>
