<svg xmlns="http://www.w3.org/2000/svg">
  <symbol id="logo" viewBox="0 0 118 40">
    <path d="M13.1,39c-1.7,0-3.3-0.3-4.7-1s-2.6-1.6-3.6-2.8S3,32.6,2.5,30.8s-0.8-3.7-0.8-5.9c0-2,0.3-3.9,0.8-5.6s1.3-3.2,2.3-4.5
  		s2.2-2.2,3.6-2.9s3-1.1,4.7-1.1c1.8,0,3.4,0.4,4.7,1.2s2.3,1.9,3.2,3.3h0.1C21,14.5,21,13.5,21,12.4s-0.1-2.2-0.1-3.3V1h7.9v37.2
  		h-7.5v-3.9h-0.1c-0.8,1.6-1.9,2.8-3.3,3.6C16.5,38.6,14.9,39,13.1,39z M15.2,32.7c1.9,0,3.4-0.7,4.5-2.2s1.6-3.3,1.6-5.7
  		c0-1.2-0.1-2.2-0.4-3.2s-0.6-1.9-1.1-2.6s-1.1-1.3-1.9-1.7c-0.8-0.4-1.6-0.6-2.6-0.6c-1.9,0-3.3,0.7-4.2,2.2s-1.4,3.4-1.4,5.8
  		s0.5,4.3,1.4,5.8C12,32,13.4,32.7,15.2,32.7z"/>
  	<path d="M38.9,1h7.9v37.2h-7.9V1z"/>
  	<path d="M50,1h8v6.9h-8V1z M50,11.6h7.9v26.6H50V11.6z"/>
  	<path d="M68.6,15.6h0.2c0.8-1.6,1.9-2.8,3.3-3.6s3-1.2,4.9-1.2c2.9,0,5.2,0.9,6.8,2.7c1.6,1.8,2.4,4.2,2.4,7.2v17.5h-7.8v-16
  		c0-1.5-0.4-2.6-1.1-3.5c-0.8-0.9-1.9-1.3-3.3-1.3c-1.5,0-2.8,0.6-3.7,1.6c-0.9,1.1-1.4,2.5-1.4,4.2v15H61V11.6h7.6V15.6z"/>
  	<path d="M102.9,39c-2.2,0-4.1-0.4-5.8-1.1c-1.7-0.7-3.2-1.7-4.4-3c-1.2-1.3-2.2-2.8-2.8-4.5c-0.7-1.7-1-3.5-1-5.5s0.3-3.9,1-5.6
  		s1.6-3.2,2.8-4.5c1.2-1.3,2.6-2.3,4.3-3c1.7-0.7,3.5-1.1,5.5-1.1c1.9,0,3.6,0.3,5.1,0.9c1.5,0.6,2.9,1.4,4,2.5
  		c1.5,1.5,2.6,3.3,3.3,5.5c0.7,2.2,1,4.6,1,7.2H96.5c0.3,2,0.9,3.6,2,4.7c1.1,1.1,2.5,1.7,4.5,1.7c1.2,0,2.2-0.2,3-0.7
  		c0.8-0.4,1.4-1.1,1.8-1.9h7.6c-0.3,1.2-0.9,2.3-1.6,3.3s-1.6,1.9-2.7,2.6s-2.3,1.3-3.7,1.8C106.1,38.8,104.6,39,102.9,39z
  		 M102.5,16.4c-1.8,0-3.2,0.5-4.1,1.6s-1.5,2.5-1.8,4.4H108c-0.1-1.9-0.7-3.3-1.7-4.4S104,16.4,102.5,16.4z"/>
  </symbol>

  <symbol id="breaker-01" viewBox="0 0 690 770">
    <path d="M178.07,1468.73v-10.72a4.867,4.867,0,0,0-4.868-4.87H78.167a4.861,4.861,0,0,0-4.856,4.87v10.72H178.07m-0.049-169.21v10.73a4.867,4.867,0,0,1-4.868,4.87H78.117a4.861,4.861,0,0,1-4.856-4.87v-10.73h104.76Zm69.36,173.21v14.63a4.862,4.862,0,0,1-4.861,4.87H8.87A4.872,4.872,0,0,1,4,1487.36v-14.63H247.381Zm0-177.21V1280.9a4.87,4.87,0,0,0-4.861-4.88H8.87A4.881,4.881,0,0,0,4,1280.9v14.62H247.381ZM106.323,1449.14H145.26V1319.12H106.323v130.02Zm86.907,18.11h24.349v-16.57H193.23v16.57Zm1.724-25.26,20.166-2.15m-20.166,3.28a1.133,1.133,0,0,1-.119-2.26L215,1438.71a1.091,1.091,0,0,1,1.25,1,1.142,1.142,0,0,1-1.007,1.25l-20.172,2.16h-0.118m0-11.11,20.166-2.15m-20.166,3.28a1.133,1.133,0,0,1-.119-2.26L215,1428.73a1.111,1.111,0,0,1,1.25,1.01,1.147,1.147,0,0,1-1.007,1.25l-20.172,2.15h-0.118m0-10.49,20.166-2.15m-20.166,3.28a1.133,1.133,0,0,1-.119-2.26L215,1419.37a1.1,1.1,0,0,1,1.25,1.01,1.147,1.147,0,0,1-1.007,1.25l-20.172,2.15h-0.118m0-11.11,20.166-2.16m-20.166,3.29a1.133,1.133,0,0,1-.119-2.26L215,1409.38a1.092,1.092,0,0,1,1.25,1.01,1.147,1.147,0,0,1-1.007,1.25l-20.172,2.16h-0.118m0-20.81,20.166-2.15m-20.166,3.28a1.133,1.133,0,0,1-.119-2.26L215,1389.72a1.1,1.1,0,0,1,1.25,1,1.147,1.147,0,0,1-1.007,1.25l-20.172,2.15h-0.118m0-10.92,20.166-2.15m-20.166,3.28a1.133,1.133,0,0,1-.119-2.26L215,1379.92a1.092,1.092,0,0,1,1.25,1.01,1.138,1.138,0,0,1-1.007,1.24l-20.172,2.16h-0.118m0-11.11,20.166-2.15m-20.166,3.28a1.133,1.133,0,0,1-.119-2.26L215,1369.94a1.1,1.1,0,0,1,1.25,1.01,1.138,1.138,0,0,1-1.007,1.24l-20.172,2.15a0.471,0.471,0,0,1-.118.01m0-10.61,20.166-2.15m-20.166,3.28a1.128,1.128,0,0,1-.119-2.25L215,1360.46a1.111,1.111,0,0,1,1.25,1.01,1.147,1.147,0,0,1-1.007,1.25l-20.172,2.15h-0.118m0-11.11,20.166-2.15m-20.166,3.28a1.133,1.133,0,0,1-.119-2.26L215,1350.49a1.091,1.091,0,0,1,1.25,1,1.132,1.132,0,0,1-1.007,1.24l-20.172,2.16h-0.118m0-10.18,20.166-2.15m-20.166,3.29a1.133,1.133,0,0,1-.119-2.26L215,1341.44a1.1,1.1,0,0,1,1.25,1,1.142,1.142,0,0,1-1.007,1.25l-20.172,2.15a0.471,0.471,0,0,1-.118.01m0-11.12,20.166-2.14m-20.166,3.28a1.133,1.133,0,0,1-.119-2.26L215,1331.46a1.1,1.1,0,0,1,1.25,1.01,1.132,1.132,0,0,1-1.007,1.24l-20.172,2.15a0.471,0.471,0,0,1-.118.01m0-10.83,20.166-2.15m-20.166,3.29a1.133,1.133,0,0,1-.119-2.26L215,1321.76a1.1,1.1,0,0,1,1.25,1.01,1.147,1.147,0,0,1-1.007,1.25l-20.172,2.15a0.471,0.471,0,0,1-.118.01m0-11.12,20.166-2.16m-20.166,3.29a1.133,1.133,0,0,1-.119-2.26L215,1311.78a1.092,1.092,0,0,1,1.25,1.01,1.132,1.132,0,0,1-1.007,1.24l-20.172,2.16h-0.118m0-10.93,20.166-2.15m-20.166,3.28a1.133,1.133,0,0,1-.119-2.26L215,1301.99a1.1,1.1,0,0,1,1.25,1,1.142,1.142,0,0,1-1.007,1.25l-20.172,2.15h-0.118m4.72,98.73h11.159v-6.5H199.674v6.5ZM32.566,1467.25H56.9v-16.57H32.566v16.57Zm1.709-25.26,20.178-2.15m-20.178,3.28a1.133,1.133,0,0,1-.119-2.26l20.178-2.15a1.082,1.082,0,0,1,1.248,1,1.14,1.14,0,0,1-1.006,1.25l-20.183,2.16H34.275m0-11.11,20.178-2.15m-20.178,3.28a1.133,1.133,0,0,1-.119-2.26l20.178-2.15a1.1,1.1,0,0,1,1.248,1.01,1.146,1.146,0,0,1-1.006,1.25l-20.183,2.15H34.275m0-10.49,20.178-2.15m-20.178,3.28a1.133,1.133,0,0,1-.119-2.26l20.178-2.15a1.088,1.088,0,0,1,1.248,1.01,1.146,1.146,0,0,1-1.006,1.25l-20.183,2.15H34.275m0-11.11,20.178-2.16m-20.178,3.29a1.133,1.133,0,0,1-.119-2.26l20.178-2.16a1.083,1.083,0,0,1,1.248,1.01,1.146,1.146,0,0,1-1.006,1.25l-20.183,2.16H34.275m0-20.81,20.178-2.15m-20.178,3.28a1.133,1.133,0,0,1-.119-2.26l20.178-2.14a1.088,1.088,0,0,1,1.248,1,1.146,1.146,0,0,1-1.006,1.25l-20.183,2.15H34.275m0-10.92,20.178-2.15m-20.178,3.28a1.133,1.133,0,0,1-.119-2.26l20.178-2.15a1.083,1.083,0,0,1,1.248,1.01,1.137,1.137,0,0,1-1.006,1.24l-20.183,2.16H34.275m0-11.11,20.178-2.15m-20.178,3.28a1.133,1.133,0,0,1-.119-2.26l20.178-2.15a1.1,1.1,0,0,1,1.248,1.01,1.137,1.137,0,0,1-1.006,1.24l-20.183,2.15a0.476,0.476,0,0,1-.119.01m0-10.61,20.178-2.15m-20.178,3.28a1.128,1.128,0,0,1-.119-2.25l20.178-2.16a1.1,1.1,0,0,1,1.248,1.01,1.146,1.146,0,0,1-1.006,1.25l-20.183,2.15H34.275m0-11.11,20.178-2.15m-20.178,3.28a1.133,1.133,0,0,1-.119-2.26l20.178-2.14a1.082,1.082,0,0,1,1.248,1,1.131,1.131,0,0,1-1.006,1.24l-20.183,2.16H34.275m0-10.18,20.178-2.15m-20.178,3.29a1.133,1.133,0,0,1-.119-2.26l20.178-2.15a1.094,1.094,0,0,1,1.248,1,1.14,1.14,0,0,1-1.006,1.25l-20.183,2.15a0.476,0.476,0,0,1-.119.01m0-11.12,20.178-2.14m-20.178,3.28a1.133,1.133,0,0,1-.119-2.26l20.178-2.15a1.088,1.088,0,0,1,1.248,1.01,1.131,1.131,0,0,1-1.006,1.24l-20.183,2.15a0.476,0.476,0,0,1-.119.01m0-10.83,20.178-2.15m-20.178,3.29a1.133,1.133,0,0,1-.119-2.26l20.178-2.16a1.1,1.1,0,0,1,1.248,1.01,1.146,1.146,0,0,1-1.006,1.25l-20.183,2.15a0.476,0.476,0,0,1-.119.01m0-11.12,20.178-2.16m-20.178,3.29a1.133,1.133,0,0,1-.119-2.26l20.178-2.15a1.083,1.083,0,0,1,1.248,1.01,1.131,1.131,0,0,1-1.006,1.24l-20.183,2.16H34.275m0-10.93,20.178-2.15m-20.178,3.28a1.133,1.133,0,0,1-.119-2.26l20.178-2.14a1.088,1.088,0,0,1,1.248,1,1.14,1.14,0,0,1-1.006,1.25l-20.183,2.15H34.275M39,1405.12H50.166v-6.5H39v6.5Zm646,358.59H201.951c-70.313,0-121.189-48.96-121.189-127.12V1500.45h89.444v129.36c0,35.61,18.5,43.91,35.668,43.91H685v89.99Zm0-757.42H201.951c-70.313,0-121.189,48.96-121.189,127.12v136.15h89.444V1140.19c0-35.61,18.5-43.91,35.668-43.91H685v-89.99Z" transform="translate(0 -999)"/>
  </symbol>

  <symbol id="breaker-02" viewBox="0 0 714 714">
    <path d="M357 1C160.4 1 1 160.4 1 357s159.4 356 356 356 356-159.4 356-356S553.6 1 357 1zm70.4 345.3v157.8c0 39.1-31.6 70.8-70.3 70.8-38.9-.1-70.4-31.7-70.4-70.6v-158c-.1 0-.1-88.2-.1-128 0-44.3 31.3-74.8 70.4-74.8 39.9 0 70.3 30.5 70.3 74.8.1 39.9-.1 126.9.1 128z"/>
  </symbol>

  <symbol id="x" viewBox="0 0 38 39">
    <path d="M37.941 37.362L20.448 19.869 37.941 2.375l-1.093-1.093-17.494 17.493L1.153.574.06 1.668l18.201 18.201L.767 37.362l1.094 1.094 17.493-17.494 17.494 17.494 1.093-1.094z"/>
  </symbol>

  <symbol id="arrow-left" viewBox="0 0 17 40">
    <path stroke-width="2" fill="none" d="M12.999.985L.989 19.489l12.01 18.503"/>
  </symbol>

  <symbol id="arrow-right" viewBox="0 0 17 42">
    <path stroke-width="2" fill="none" d="M2.901 1.641l12.017 18.738L2.901 39.117"/>
  </symbol>

  <symbol id="grid-large" viewBox="0 0 28 28">
    <path d="M22,0h6V6H22V0ZM11,0h6V6H11V0Zm0,11h6v6H11V11Zm11,0h6v6H22V11Zm0,11h6v6H22V22ZM11,22h6v6H11V22ZM0,22H6v6H0V22ZM0,11H6v6H0V11ZM0,0H6V6H0V0Z"/>
  </symbol>

  <symbol id="grid-small" viewBox="0 0 28 28">
    <path d="M24,0h4V4H24V0ZM16,0h4V4H16V0ZM8,0h4V4H8V0ZM0,0H4V4H0V0ZM24,8h4v4H24V8ZM16,8h4v4H16V8ZM8,8h4v4H8V8ZM0,8H4v4H0V8Zm24,8h4v4H24V16Zm-8,0h4v4H16V16ZM8,16h4v4H8V16ZM0,16H4v4H0V16Zm24,8h4v4H24V24Zm-8,0h4v4H16V24ZM8,24h4v4H8V24ZM0,24H4v4H0V24Z"/>
  </symbol>

  <symbol id="arrow" viewBox="0 0 19 14">
    <path fill="none" d="M15.5 10.499H4.484L9.992 3.5l5.508 6.999z"/>
  </symbol>
</svg>
